<svg xmlns="http://www.w3.org/2000/svg" data-name="Layer 1" viewBox="0 0 100 125" x="0px" y="0px"><title>Dark Mode</title><path d="M22.67,50A27.33,27.33,0,1,0,50,22.67,27.34,27.34,0,0,0,22.67,50ZM50.26,29.83a20.43,20.43,0,0,1,0,40.86ZM52,17.06V4.8a2.3,2.3,0,1,0-4.59,0V17.06a2.3,2.3,0,0,0,4.59,0Zm31.37,2.42a2.3,2.3,0,0,0-3.25-3.25L71.49,24.9a2.3,2.3,0,0,0,3.25,3.25ZM82.94,52H95.2a2.3,2.3,0,1,0,0-4.59H82.94a2.3,2.3,0,0,0,0,4.59ZM71.85,71.49a2.29,2.29,0,0,0,0,3.25l8.67,8.67a2.31,2.31,0,0,0,3.25,0,2.29,2.29,0,0,0,0-3.25L75.1,71.49A2.29,2.29,0,0,0,71.85,71.49ZM48,82.94V95.2a2.3,2.3,0,1,0,4.59,0V82.94a2.3,2.3,0,0,0-4.59,0ZM16.59,80.52a2.3,2.3,0,0,0,1.63,3.92,2.27,2.27,0,0,0,1.62-.67l8.67-8.67a2.3,2.3,0,0,0-3.25-3.25ZM2.5,50.26a2.3,2.3,0,0,0,2.3,2.29H17.06a2.3,2.3,0,0,0,0-4.59H4.8A2.3,2.3,0,0,0,2.5,50.26ZM28.15,28.51a2.29,2.29,0,0,0,0-3.25l-8.67-8.67a2.3,2.3,0,0,0-3.25,3.25l8.67,8.67a2.31,2.31,0,0,0,3.25,0Z"/><text x="0" y="115" fill="#000000" font-size="5px" font-weight="bold" font-family="'Helvetica Neue', Helvetica, Arial-Unicode, Arial, Sans-serif">Created by Rainbow Designs</text><text x="0" y="120" fill="#000000" font-size="5px" font-weight="bold" font-family="'Helvetica Neue', Helvetica, Arial-Unicode, Arial, Sans-serif">from the Noun Project</text></svg>